Coordinates
version=1
nRows=16
nColumns=42
inDegrees=yes

Units are S.I. units (second, meters, Newtons, ...)
If the header above contains a line with 'inDegrees', this indicates whether rotational values are in degrees (yes) or radians (no).

endheader
time	pelvis_tilt	pelvis_list	pelvis_rotation	pelvis_tx	pelvis_ty	pelvis_tz	hip_flexion_r	hip_adduction_r	hip_rotation_r	knee_angle_r	knee_adduction_r	knee_angle_r_beta	ankle_angle_r	subtalar_angle_r	mtp_angle_r	hip_flexion_l	hip_adduction_l	hip_rotation_l	knee_angle_l	knee_adduction_l	knee_angle_l_beta	ankle_angle_l	subtalar_angle_l	mtp_angle_l	lumbar_extension	lumbar_bending	lumbar_rotation	arm_flex_r	arm_add_r	arm_rot_r	elbow_flex_r	pro_sup_r	wrist_flex_r	wrist_dev_r	arm_flex_l	arm_add_l	arm_rot_l	elbow_flex_l	pro_sup_l	wrist_flex_l	wrist_dev_l
      1.44000000	      7.14030624	     -2.67719733	      7.24477808	     -1.01259057	      0.84929427	      0.21509503	     26.30863662	      4.80998361	    -32.48058367	     28.34524531	    -16.91931008	      0.49471786	      6.92576975	     16.63172997	     -7.50734537	    -20.41599544	      0.83104915	    -10.32687867	     27.83701601	    -13.10302547	      0.48584758	     27.68074853	     20.42801833	     -7.50734537	    -27.42510113	      6.32989087	     -2.08687982	     -1.70775205	    -12.26383069	      5.64656042	     29.06076122	     90.00000001	      0.00000000	      0.00000000	     22.35037034	    -18.79188898	      7.23110916	     58.02112744	     90.00000001	      0.00000000	      0.00000000
      1.45000000	      6.90301328	     -3.22528873	      6.90335310	     -0.99878942	      0.84987746	      0.21727962	     26.09011463	      6.11601259	    -30.37839007	     29.39279639	    -16.67468004	      0.51300107	      6.61589921	     11.91173959	     -7.50684801	    -19.14121422	      0.03386784	    -10.92542087	     31.21865429	    -13.52859853	      0.54486831	     25.14906092	     18.81051908	     -7.50684801	    -27.13223044	      6.88544555	     -1.76296268	     -1.11152809	    -12.37187304	      5.48272255	     28.83969006	     90.00000001	      0.00000000	      0.00000000	     21.23781691	    -18.40229920	      6.52208621	     57.57702412	     90.00000001	      0.00000000	      0.00000000
      1.46000000	      7.15481858	     -3.75179975	      6.67015585	     -0.98428437	      0.85158549	      0.21945351	     25.07795539	      7.18879117	    -29.88949169	     29.90206240	    -16.73150574	      0.52188944	      7.42460374	     11.41568165	     -7.50673963	    -18.49284331	     -0.92902347	    -11.42845758	     34.29480024	    -13.77507994	      0.59855718	     22.18463456	     18.08129174	     -7.50673963	    -27.28395395	      7.44598224	     -1.40390481	     -0.61244248	    -12.52833242	      5.46596186	     28.81381290	     90.00000001	      0.00000000	      0.00000000	     20.21473633	    -18.16818059	      6.35260101	     57.01801680	     90.00000001	      0.00000000	      0.00000000
      1.47000000	      7.22974967	     -4.23537257	      6.26828489	     -0.97018863	      0.85330650	      0.22192500	     24.14731149	      8.26943392	    -29.26223454	     30.18960691	    -16.71433752	      0.52690804	      8.05848173	     10.60444498	     -7.50660647	    -17.31556923	     -1.81928721	    -12.17948699	     37.81727702	    -14.10233393	      0.66003600	     19.41127145	     16.61468251	     -7.50660647	    -27.30125185	      7.85935913	     -0.91556846	     -0.02431137	    -12.69023479	      5.47774521	     28.76658089	     90.00000001	      0.00000000	      0.00000000	     19.18387755	    -17.85140446	      6.16047229	     56.30961563	     90.00000001	      0.00000000	      0.00000000
      1.48000000	      7.18422299	     -4.59202506	      5.76806708	     -0.95667428	      0.85524875	      0.22451439	     23.20320097	      9.20064169	    -28.29056672	     30.33501165	    -16.42394898	      0.52944583	      8.46933048	      9.02263634	     -7.50622346	    -15.80640443	     -2.47825392	    -12.47926137	     41.58814131	    -14.22944738	      0.72585000	     16.75458459	     13.65995307	     -7.50622346	    -27.28096709	      8.07785596	     -0.39400632	      0.64823670	    -12.84617051	      5.52995483	     28.77916067	     90.00000001	      0.00000000	      0.00000000	     18.23256584	    -17.52796944	      6.04078617	     55.42412773	     90.00000001	      0.00000000	      0.00000000
      1.49000000	      7.30880442	     -4.98757777	      5.25802039	     -0.94292566	      0.85754405	      0.22723091	     21.86180258	     10.17380061	    -28.14829590	     29.90270447	    -16.44837028	      0.52190065	      9.35658086	      9.45101719	     -7.50607905	    -14.36251501	     -3.33279591	    -13.62170345	     45.17554918	    -14.72799120	      0.78846207	     14.46931195	     11.70555121	     -7.50607905	    -27.39943557	      8.29987240	      0.24062320	      1.27620384	    -13.03387646	      5.56006948	     28.90978577	     90.00000001	      0.00000000	      0.00000000	     17.32890244	    -17.24972454	      6.22175178	     54.43770276	     90.00000001	      0.00000000	      0.00000000
      1.50000000	      7.36808162	     -5.16111717	      4.84030811	     -0.92970302	      0.86000886	      0.22960299	     20.54437125	     10.68405255	    -28.36688759	     29.41868654	    -16.43932443	      0.51345294	     10.26926789	     10.64960058	     -7.50571394	    -12.67353226	     -3.81924969	    -13.95861780	     48.89947856	    -14.95868140	      0.85345690	     12.51259404	      7.74619049	     -7.50571394	    -27.50810091	      8.30208220	      0.71692835	      1.95210875	    -13.19326258	      5.66351446	     29.13640720	     90.00000001	      0.00000000	      0.00000000	     16.52264240	    -16.99265024	      6.52273268	     53.31107492	     90.00000001	      0.00000000	      0.00000000
      1.51000000	      7.58708015	     -5.37501514	      4.39799355	     -0.91634157	      0.86276687	      0.23200319	     18.80386153	     11.33257808	    -28.23435797	     28.58141319	    -16.24173089	      0.49883977	     11.40879831	     11.49134239	     -7.50557872	    -11.08987033	     -4.46680519	    -15.42302910	     52.18351180	    -15.86051880	      0.91077410	     11.35831334	      5.55460507	     -7.50557872	    -27.76288676	      8.31640653	      1.28833950	      2.63671044	    -13.37773796	      5.69179709	     29.38172049	     90.00000001	      0.00000000	      0.00000000	     15.74799392	    -16.73065008	      6.94093691	     52.10163854	     90.00000001	      0.00000000	      0.00000000
      1.52000000	      7.65903387	     -5.24934730	      4.02355347	     -0.90369582	      0.86550330	      0.23427334	     17.45160517	     11.39050563	    -29.00339016	     27.91918691	    -16.43991039	      0.48728174	     12.15402364	     14.04646446	     -7.50525551	     -9.20332106	     -4.58913208	    -15.42716427	     55.61645534	    -15.82954609	      0.97069026	      9.88730902	      0.11253970	     -7.50525551	    -27.95037520	      7.93446688	      1.75595555	      3.28760298	    -13.51813775	      5.83892283	     29.84309688	     90.00000001	      0.00000000	      0.00000000	     15.17794843	    -16.58043770	      7.66905632	     50.78676181	     90.00000001	      0.00000000	      0.00000000
      1.53000000	      7.96298310	     -5.05916653	      3.70816008	     -0.89092529	      0.86871590	      0.23622839	     15.63366039	     11.37105708	    -29.29668651	     27.12114041	    -16.30296189	      0.47335320	     13.31625607	     15.93057725	     -7.50486154	     -7.59032399	     -4.63310939	    -15.94176199	     58.43723047	    -16.17497818	      1.01992208	      8.99126366	     -3.98534233	     -7.50486154	    -28.37273217	      7.51463135	      2.15657528	      4.05253041	    -13.64653159	      5.90756645	     30.20723201	     90.00000001	      0.00000000	      0.00000000	     14.60170333	    -16.42039947	      8.39673484	     49.45559132	     90.00000001	      0.00000000	      0.00000000
      1.54000000	      8.30015428	     -4.86832912	      3.45552213	     -0.87832320	      0.87198997	      0.23799033	     13.66109966	     11.40597468	    -28.79273950	     26.26979814	    -15.78989860	      0.45849447	     14.08675392	     16.38757513	     -7.50476797	     -5.94726470	     -4.68269110	    -17.09512398	     60.76202101	    -17.12256996	      1.06049733	      9.37799137	     -5.42328435	     -7.50476797	    -28.84040558	      7.10054900	      2.47873814	      4.86172281	    -13.75891000	      5.93644122	     30.60072139	     90.00000001	      0.00000000	      0.00000000	     14.02069146	    -16.21741100	      8.91885871	     48.14092365	     90.00000001	      0.00000000	      0.00000000
      1.55000000	      8.48609318	     -4.54185175	      3.17362340	     -0.86617340	      0.87505983	      0.23989418	     12.02839925	     11.25616114	    -28.72559558	     25.49412205	    -15.61081429	      0.44495637	     14.74503207	     17.78653148	     -7.50442147	     -4.01861785	     -4.54511645	    -17.05292462	     63.13130207	    -16.91225927	      1.10184908	      8.35703888	     -9.61697753	     -7.50442147	    -29.18556055	      6.48414539	      2.91271852	      5.56620828	    -13.93734059	      6.18398558	     31.15619435	     90.00000001	      0.00000000	      0.00000000	     13.67004802	    -16.17346321	     10.20923310	     46.60965560	     90.00000001	      0.00000000	      0.00000000
      1.56000000	      8.74688954	     -4.22069289	      2.94055156	     -0.85397501	      0.87817835	      0.24149477	     10.17303722	     11.13622530	    -28.07831963	     24.62848907	    -15.13873831	      0.42984822	     15.36905505	     18.11973846	     -7.50430445	     -2.20822317	     -4.38947330	    -17.62808253	     64.83860136	    -17.28845651	      1.13164708	      8.80793729	    -10.57278970	     -7.50430445	    -29.59288266	      5.91735040	      3.21715605	      6.41318327	    -14.08016891	      6.27929946	     31.59567751	     90.00000001	      0.00000000	      0.00000000	     13.19231890	    -15.97274267	     10.89169202	     45.15661333	     90.00000001	      0.00000000	      0.00000000
      1.57000000	      8.93253040	     -3.79964437	      2.79326153	     -0.84205997	      0.88112713	      0.24278299	      8.42320303	     10.82903779	    -27.46004761	     23.78082841	    -14.61102325	      0.41505375	     15.88672595	     18.35839623	     -7.50421329	     -0.28216708	     -3.97149790	    -17.76743767	     66.19034195	    -17.43643728	      1.15523940	      9.26890894	    -11.16470247	     -7.50421329	    -29.94008254	      5.27372019	      3.36488404	      7.26723351	    -14.21596869	      6.41286917	     32.11719268	     90.00000001	      0.00000000	      0.00000000	     12.67750908	    -15.85438848	     11.58354514	     43.82042567	     90.00000001	      0.00000000	      0.00000000
      1.58000000	      9.04485249	     -3.36745143	      2.65612303	     -0.83031354	      0.88375769	      0.24396226	      6.79465218	     10.53353419	    -26.87777488	     22.91378970	    -14.21011365	      0.39992107	     16.35848930	     18.60166369	     -7.50413031	      1.74227613	     -3.49759597	    -17.62867060	     67.23856377	    -17.28322852	      1.17353432	      9.67626243	    -11.47551182	     -7.50413031	    -30.21081246	      4.63646826	      3.48917748	      8.14652974	    -14.35862598	      6.60184990	     32.68463162	     90.00000001	      0.00000000	      0.00000000	     12.16116191	    -15.68940388	     12.32090395	     42.49669543	     90.00000001	      0.00000000	      0.00000000
      1.59000000	      9.07385723	     -3.05016982	      2.51867973	     -0.81871431	      0.88597291	      0.24511006	      5.24497937	     10.37576905	    -26.42182443	     21.87907084	    -13.84181499	      0.38186182	     16.85520766	     19.06123639	     -7.50403284	      3.85559132	     -3.08299608	    -16.99814494	     68.04724787	    -16.70449280	      1.18764852	     10.05871270	    -11.77126111	     -7.50403284	    -30.36857495	      4.13822718	      3.66984555	      8.98950260	    -14.63890345	      6.95129508	     33.27859373	     90.00000001	      0.00000000	      0.00000000	     11.69480348	    -15.59778502	     13.30947713	     40.95132716	     90.00000001	      0.00000000	      0.00000000
